<?xml version="1.0" encoding="UTF-8"?>
<svg id="instagram" xmlns="http://www.w3.org/2000/svg" version="1.1" viewBox="0 0 24 24">
  <!-- Generator: Adobe Illustrator 29.3.0, SVG Export Plug-In . SVG Version: 2.1.0 Build 91)  -->
  <defs>
    <style>
      .st0 {
        fill: #212121;
      }

      .st1 {
        fill: #fff;
      }
    </style>
  </defs>
  <rect class="st0" width="24" height="24"/>
  <path class="st1" d="M8,12c0-2.21,1.8-4,4-4s4,1.8,4,4-1.8,4-4,4-4-1.8-4-4ZM5.83,12c0,3.41,2.76,6.17,6.17,6.17s6.17-2.76,6.17-6.17-2.76-6.17-6.17-6.17-6.17,2.76-6.17,6.17ZM16.97,5.59c0,.28.09.57.24.81.16.24.38.42.64.53s.55.14.84.09.53-.2.74-.39c.21-.21.34-.46.39-.74.05-.28.03-.57-.09-.84-.11-.26-.29-.49-.53-.64-.24-.16-.51-.24-.81-.24h0c-.38,0-.75.15-1.02.42s-.42.63-.42,1.02l.02-.02ZM7.15,21.77c-1.17-.05-1.81-.25-2.23-.41-.57-.22-.96-.48-1.38-.9s-.69-.82-.9-1.38c-.16-.42-.36-1.06-.41-2.23-.05-1.26-.07-1.64-.07-4.85s.01-3.59.07-4.85c.05-1.17.25-1.81.41-2.23.22-.57.48-.96.9-1.38s.82-.69,1.38-.9c.42-.16,1.06-.36,2.23-.41,1.26-.05,1.64-.07,4.85-.07s3.59.01,4.85.07c1.17.05,1.81.25,2.23.41.57.22.96.48,1.38.9.42.42.67.82.9,1.38.16.42.36,1.06.41,2.23.05,1.26.07,1.64.07,4.85s-.01,3.59-.07,4.85c-.05,1.17-.25,1.81-.41,2.23-.22.57-.48.96-.9,1.38-.42.42-.82.67-1.38.9-.42.16-1.06.36-2.23.41-1.26.05-1.64.07-4.85.07s-3.59-.01-4.85-.07ZM7.05.07c-1.27.05-2.15.26-2.92.55-.79.3-1.46.72-2.12,1.38-.66.66-1.08,1.34-1.38,2.12-.29.76-.5,1.63-.55,2.92C.02,8.32,0,8.73,0,11.99s.01,3.67.08,4.95c.05,1.27.26,2.15.55,2.92.3.79.72,1.46,1.38,2.12s1.34,1.08,2.12,1.38c.76.29,1.63.5,2.92.55,1.28.05,1.69.08,4.95.08s3.67-.01,4.95-.08c1.27-.05,2.15-.26,2.92-.55.79-.3,1.46-.72,2.12-1.38s1.08-1.34,1.38-2.12c.29-.76.5-1.63.55-2.92.05-1.28.08-1.69.08-4.95s-.01-3.67-.08-4.95c-.05-1.27-.26-2.15-.55-2.92-.3-.79-.72-1.46-1.38-2.12s-1.34-1.08-2.12-1.38c-.76-.29-1.63-.5-2.92-.55C15.67.01,15.26,0,12,0S8.33,0,7.05.07Z"/>
</svg>
